<?xml version="1.0"?><svg width="1000" height="450" xmlns="http://www.w3.org/2000/svg" xmlns:xlink="http://www.w3.org/1999/xlink">
 <defs>
  <filter id="filter4376" height="1.456" y="-0.228" width="1.456" x="-0.228">
   <feGaussianBlur id="feGaussianBlur4378" stdDeviation="4.75"/>
  </filter>
  <linearGradient id="linearGradient4145">
   <stop stop-color="#ffff22" id="stop4147" offset="0"/>
   <stop stop-color="#ffff71" stop-opacity="0.793814" id="stop4149" offset="1"/>
  </linearGradient>
  <linearGradient id="linearGradient3162">
   <stop stop-color="#8bcbff" id="stop3164" offset="0"/>
   <stop stop-color="#0081ed" id="stop3166" offset="1"/>
  </linearGradient>
  <radialGradient r="25" fy="25" fx="-50" cy="25" cx="-50" gradientTransform="matrix(3.97698, 0, 0, 3.52, 2248.84, 35)" gradientUnits="userSpaceOnUse" id="radialGradient4657" xlink:href="#linearGradient4145"/>
  <radialGradient r="50" fy="-5.606602" fx="78.461044" cy="-5.606602" cx="78.461044" gradientTransform="matrix(8.51047, -0.684247, 0.0921219, 5.51606, 116.792, 170.884)" gradientUnits="userSpaceOnUse" id="radialGradient2218" xlink:href="#linearGradient3162"/>
 </defs>
 <metadata id="metadata7">image/svg+xml</metadata>
 <g>
  <title>Layer 1</title>
  <g id="layer1">
   <path fill="#ffff00" stroke="#000000" stroke-width="0" stroke-miterlimit="4" d="m-45.113251,-14.5a0,12.5 0 1 1 0,0a0,12.5 0 1 1 0,0z" id="path3172"/>
   <use height="100" width="100" transform="matrix(-1, 0, 0, 1, 997.109, -3e-05)" id="use3223" xlink:href="#rect3155" y="0" x="0"/>
   <use height="100" width="100" transform="matrix(-1, 0, 0, 1, 991.068, 1.00833e-05)" id="use3220" xlink:href="#g3197" y="0" x="0"/>
   <path fill="none" fill-rule="evenodd" stroke="#000000" stroke-width="5.765175px" id="path3252" d="m-20.117401,256.333344l0,0z"/>
   <rect fill="url(#radialGradient2218)" stroke="#000000" stroke-width="0" stroke-miterlimit="4" y="0" x="0.882576" height="219.000006" width="998.117387" id="rect2187"/>
   <path fill="url(#radialGradient4657)" stroke="#000000" stroke-width="0" stroke-miterlimit="4" filter="url(#filter4376)" d="m775.533081,83a39.88475,40 0 1 1 -79.76947,0a39.88475,40 0 1 1 79.76947,0z" id="path3174"/>
   <path fill="#ffffff" fill-rule="nonzero" stroke-miterlimit="4" stroke-dashoffset="0" id="path8739" d="m880.485779,73.953049c-10.154236,0 -18.568481,6.044998 -19.999573,13.908722c-0.357971,-0.02562 -0.718201,-0.042252 -1.083862,-0.042252c-6.986633,0 -12.67627,4.780212 -12.831909,10.715637c-1.167236,-0.525391 -2.50824,-0.826447 -3.939331,-0.826447c-4.472168,0 -8.105957,2.92804 -8.105957,6.531723c0,3.603714 4.575989,7.554947 9.048157,7.554947c37.90271,0.098389 63.085815,0.403183 100.857239,0.20462c5.085266,0 9.736572,-1.943237 9.736572,-6.040955c0,-4.097717 -4.127808,-7.423889 -9.213074,-7.423889c-1.325806,0 -2.58429,0.22702 -3.723694,0.633896c-2.064331,-2.754471 -5.811157,-4.597122 -10.093018,-4.597122c-1.686035,0 -3.292664,0.288406 -4.743469,0.803009c-0.808167,-4.180908 -5.296753,-7.386383 -10.710754,-7.386383c-4.273987,0 -7.971741,1.995422 -9.73761,4.892944c-1.578918,-0.753159 -3.383423,-1.236343 -5.308655,-1.366455c0.040466,-0.421051 0.064087,-0.84317 0.064087,-1.272522c0,-8.99086 -9.057617,-16.289474 -20.215149,-16.289474z"/>
   <path fill="#ffffff" fill-rule="nonzero" stroke-miterlimit="4" stroke-dashoffset="0" id="path8741" d="m584.25769,131c4.529602,0 8.283081,4.442215 8.921448,10.221146c0.159729,-0.01889 0.320374,-0.031082 0.483521,-0.031082c3.116455,0 5.654541,3.512802 5.723999,7.874557c0.52063,-0.386093 1.118896,-0.6073 1.757263,-0.6073c1.994934,0 3.615845,2.151703 3.615845,4.799973c0,2.648224 -2.041199,5.551941 -4.036133,5.551941c-16.907654,0.072235 -28.141235,0.296265 -44.990356,0.150314c-2.268433,0 -4.343323,-1.427994 -4.343323,-4.439301c0,-3.011261 1.84137,-5.455627 4.109802,-5.455627c0.59137,0 1.152893,0.166824 1.661072,0.465866c0.920837,-2.024155 2.592224,-3.378265 4.502319,-3.378265c0.752136,0 1.46875,0.211945 2.115967,0.590027c0.360474,-3.072388 2.362793,-5.427979 4.777771,-5.427979c1.906616,0 3.55603,1.466339 4.343689,3.595673c0.704346,-0.553482 1.509338,-0.908569 2.368225,-1.004181c-0.018127,-0.309448 -0.028625,-0.619598 -0.028625,-0.93512c0,-6.607147 4.040344,-11.970642 9.017517,-11.970642z"/>
   <path fill="#ffffff" fill-rule="nonzero" stroke-miterlimit="4" stroke-dashoffset="0" id="path8811" d="m147.199707,90.379044c-22.317291,0 -40.810486,13.285843 -43.955811,30.569077c-0.786804,-0.056396 -1.578522,-0.092896 -2.382263,-0.092896c-15.355164,0 -27.860229,10.506195 -28.202393,23.551239c-2.565308,-1.154724 -5.512634,-1.816406 -8.657959,-1.816406c-9.829132,0 -17.815338,6.435364 -17.815338,14.355682c0,7.92038 10.057037,16.604599 19.8862,16.604599c83.304016,0.216141 138.652496,0.886093 221.667938,0.449661c11.176575,0 21.399292,-4.270844 21.399292,-13.276978c0,-9.006119 -9.072235,-16.316559 -20.248932,-16.316559c-2.913879,0 -5.679779,0.499008 -8.18399,1.393219c-4.53714,-6.05394 -12.771912,-10.103668 -22.182892,-10.103668c-3.705536,0 -7.236694,0.633789 -10.425385,1.764771c-1.776093,-9.188934 -11.641373,-16.234009 -23.540375,-16.234009c-9.393616,0 -17.520584,4.38562 -21.401627,10.753876c-3.470413,-1.655319 -7.436478,-2.717285 -11.667679,-3.003235c0.089081,-0.9254 0.140839,-1.853119 0.140839,-2.79686c0,-19.760391 -19.907043,-35.801514 -44.429626,-35.801514z"/>
   <path fill="#ffffff" fill-rule="nonzero" stroke-miterlimit="4" stroke-dashoffset="0" id="path8813" d="m356.90921,45.130005c7.705048,0 14.089813,4.586899 15.17569,10.553925c0.271667,-0.01947 0.544952,-0.032074 0.822449,-0.032074c5.301331,0 9.618713,3.627258 9.736786,8.131027c0.885742,-0.398636 1.903229,-0.62709 2.989166,-0.62709c3.393433,0 6.150757,2.221771 6.150757,4.956253c0,2.734482 -3.472198,5.732712 -6.865753,5.732712c-28.760376,0.074585 -47.869446,0.305878 -76.530243,0.155243c-3.858704,0 -7.388062,-1.474518 -7.388062,-4.583832c0,-3.109375 3.132172,-5.633286 6.990875,-5.633286c1.005981,0 1.960876,0.172302 2.8255,0.481018c1.566437,-2.090118 4.409576,-3.488266 7.658478,-3.488266c1.279449,0 2.498596,0.218826 3.599396,0.609299c0.613312,-3.17247 4.019196,-5.604813 8.127289,-5.604813c3.243195,0 6.049042,1.514145 7.388916,3.712784c1.19809,-0.571487 2.567352,-0.938126 4.028229,-1.036835c-0.030853,-0.319504 -0.048645,-0.639801 -0.048645,-0.965607c0,-6.822281 6.872803,-12.360458 15.339172,-12.360458z"/>
   <rect id="svg_1" height="0" width="1" y="35" x="-298" stroke-width="0" stroke="#000000" fill="url(#radialGradient2218)"/>
   <rect id="svg_2" height="230" width="999" y="219" x="1" stroke-width="0" stroke="#000000" fill="url(#radialGradient2218)"/>
   <path id="svg_4" fill="#ffffff" fill-rule="nonzero" stroke-miterlimit="4" stroke-dashoffset="0" d="m331.584534,287.117279c-13.490601,0 -24.669617,9.162079 -26.570923,21.08075c-0.475647,-0.038879 -0.954224,-0.064056 -1.440063,-0.064056c-9.282104,0 -16.841309,7.245178 -17.048157,16.24118c-1.55072,-0.796326 -3.332336,-1.252625 -5.233643,-1.252625c-5.94165,0 -10.769287,4.437897 -10.769287,9.899811c0,5.461975 6.079407,11.450714 12.021118,11.450714c50.356628,0.149048 83.814331,0.611053 133.996521,0.310089c6.756165,0 12.93573,-2.945221 12.93573,-9.155945c0,-6.210693 -5.484131,-11.252045 -12.240356,-11.252045c-1.761414,0 -3.43335,0.344086 -4.947144,0.960754c-2.742676,-4.174866 -7.72052,-6.96759 -13.409363,-6.96759c-2.23999,0 -4.374573,0.437073 -6.302124,1.21701c-1.073608,-6.336792 -7.037109,-11.195129 -14.229919,-11.195129c-5.678406,0 -10.591064,3.024353 -12.937134,7.415985c-2.097839,-1.141541 -4.4953,-1.873871 -7.05304,-2.071075c0.053833,-0.638153 0.085144,-1.277924 0.085144,-1.928741c0,-13.626953 -12.03363,-24.689087 -26.857361,-24.689087z"/>
   <path id="svg_6" fill="#ffffff" fill-rule="nonzero" stroke-miterlimit="4" stroke-dashoffset="0" d="m877.223206,220.996109c12.252747,0 22.406128,13.799942 24.132935,31.752487c0.432068,-0.058563 0.866577,-0.096497 1.307922,-0.096497c8.430115,0 15.295776,10.91275 15.483643,24.462799c1.408325,-1.199463 3.026672,-1.886627 4.753479,-1.886627c5.396362,0 9.781006,6.684296 9.781006,14.911346c0,8.226837 -5.521484,17.247406 -10.917908,17.247406c-45.735901,0.224396 -76.12323,0.920349 -121.700806,0.466919c-6.13623,0 -11.748901,-4.436096 -11.748901,-13.790833c0,-9.354767 4.980957,-16.948212 11.117188,-16.948212c1.59967,0 3.118652,0.518188 4.493286,1.447174c2.490906,-6.288086 7.012085,-10.494751 12.178955,-10.494751c2.034546,0 3.973022,0.658417 5.723755,1.832947c0.975098,-9.544556 6.391479,-16.862305 12.924133,-16.862305c5.157471,0 9.619202,4.555237 11.749817,11.170135c1.905273,-1.719452 4.082825,-2.82251 6.406189,-3.119537c-0.049072,-0.961304 -0.077454,-1.924805 -0.077454,-2.904999c0,-20.525452 10.929321,-37.187454 24.392761,-37.187454z"/>
  </g>
 </g>
</svg>