<?xml version="1.0"?><svg width="533.3333333333333" height="533.3333333333333" xmlns="http://www.w3.org/2000/svg">
 <g>
  <title>Layer 1</title>
  <path fill="#ffaa56" fill-rule="evenodd" stroke-width="0" id="path671" d="m275.335083,364.757355c0,0 12.771118,37.857788 27.244141,69.693085c14.474121,31.836334 40.016357,47.323242 43.422302,47.323242c3.404907,0 6.81073,-18.06839 5.95929,-28.393341c-0.85144,-10.324921 -24.690796,-30.97583 16.177002,1.720001c40.866821,32.695801 69.813965,46.462708 67.259521,35.277313c4.257385,-27.533875 -43.421204,-85.181 -12.770142,-74.856079c30.650146,10.324921 82.585083,34.416779 50.232056,-3.441986c-32.353027,-37.857788 -65.557556,-55.066681 -37.460938,-54.206207c28.095703,0.860504 55.339905,13.766937 41.718323,-11.185425c-13.62262,-24.952362 -79.160095,-63.757904 -107.255798,-80.106323c-22.136353,11.185455 -65.577637,40.527557 -94.525757,98.17572z"/>
  <path fill="#f7f747" fill-rule="evenodd" stroke-width="17.5" stroke-linejoin="round" id="path672" d="m289.053986,342.743011c0,0 9.327026,44.940002 19.502014,58.505981c10.174988,13.567017 12.718994,11.871002 15.263,-6.78299c2.544006,-18.653992 -15.263,-37.30899 15.261993,-16.958008c30.526001,20.350006 56.811005,45.787018 41.549011,14.414001c-15.263,-31.372986 -19.502991,-39.003998 1.695007,-27.980988c21.197998,11.02298 41.548981,19.501984 16.109985,-11.02301c-19.501007,-22.04599 19.502014,-27.981995 26.286011,-30.524994c16.110992,2.544006 -68.681,-44.94101 -77.160004,-44.94101c-9.328003,1.696014 -55.115997,58.507019 -58.507019,65.291016z"/>
  <path fill="#00e5ff" fill-rule="evenodd" stroke="#000000" stroke-width="10" stroke-linejoin="round" id="path663" d="m22.806299,34.098999c78.856703,1.695702 278.117712,33.916603 354.4307,229.786987c-26.286011,5.088013 -90.72699,67.834015 -100.902008,102.598022c-194.173691,-99.205994 -249.289091,-256.072006 -253.528692,-332.38501l0,0z"/>
  <path fill="#5656ff" fill-rule="evenodd" stroke="#000000" stroke-width="10" stroke-linejoin="round" id="path664" d="m168.649323,295.258728c0,0 3.390991,86.488007 3.390991,87.335999c0,0.847992 104.295013,48.332001 110.230011,50.876007l-5.087006,-67.834015c-9.326996,0.847992 -92.423996,-52.570984 -108.533997,-70.377991z"/>
  <path fill="#5656ff" fill-rule="evenodd" stroke="#000000" stroke-width="10" stroke-linejoin="round" id="path665" d="m309.733521,154.352798c0,0 85.530945,3.820038 86.378693,3.840881c0.847717,0.020844 45.754395,105.451248 48.151764,111.446976l-67.688507,-6.752441c-9.098663,-33.045609 -46.892853,-88.600159 -66.841949,-108.535416z"/>
  <path fill="#00007f" fill-rule="evenodd" stroke="#000000" stroke-width="10" stroke-linejoin="round" id="path666" d="m240.316772,213.169052c0,0 14.259979,34.122604 16.667175,39.685852c2.953827,3.748337 77.58902,64.656357 83.067596,68.074173l-3.178864,-21.680725c-7.994232,-7.698639 -76.803406,-68.015976 -96.555908,-86.0793z"/>
  <path fill="#5656ff" fill-rule="evenodd" stroke="#000000" stroke-width="10" stroke-linejoin="round" id="path667" d="m237.636536,212.39949l-16.768509,24.280228l20.644791,35.733917l85.753967,67.744385l12.387604,-18.545471l-81.991364,-69.240036l-20.026489,-39.973022z"/>
  <path fill="#bfbfbf" fill-rule="evenodd" stroke="#000000" stroke-width="12.5" stroke-linejoin="round" id="path668" d="m129.644989,134.154007c-28.829788,39.003998 30.524017,87.335999 58.506012,52.570999c33.916992,-42.396011 -24.589005,-83.096008 -58.506012,-52.570999z"/>
  <path fill="#00ff7f" fill-rule="evenodd" stroke="#000000" stroke-width="10" stroke-linejoin="round" id="path669" d="m137.276001,137.393005c21.197998,-20.350006 70.376999,4.23999 48.332001,40.700989c-24.589996,31.372009 -74.617004,-8.478989 -48.332001,-40.700989z"/>
  <path fill="#ffffff" fill-opacity="0.75" fill-rule="evenodd" stroke-width="12.5" stroke-linejoin="round" id="path670" d="m153.386002,137.501999c-6.860886,4.737549 -24.900513,19.623886 -10.175003,37.352005c12.718994,3.391998 30.524994,-35.656006 10.175003,-37.352005z"/>
 </g>

</svg>